<?xml version="1.0" encoding="UTF-8"?>
<svg clip-rule="evenodd" fill-rule="evenodd" version="1.1" viewBox="0 0 295 106" xml:space="preserve" xmlns="http://www.w3.org/2000/svg" xmlns:xlink="http://www.w3.org/1999/xlink">
    <g><path d="m52.762 11.283-41.48 41.48 41.48 41.471 37.305-37.305h22.031c0.7804 6.7449 3.448 13.278 7.9688 18.592 9.7046 12.116 27.064 16.422 41.309 10.303 9.9448-4.039 17.487-12.572 20.564-22.645h-8.9004c-2.7917 6.6402-8.1689 12.251-14.846 14.947l-0.04102 0.015625-0.04882 0.025391c-10.609 4.5676-24.371 1.1411-31.574-7.8945l-0.04102-0.056641-0.04883-0.048828c-7.6978-9.0113-8.2331-23.693-1.2051-33.236l0.04101-0.056641 0.04102-0.056641c6.4418-9.3755 19.595-13.827 30.412-10.32l0.05664 0.017578 0.04882 0.015625c4.6687 1.3751 8.8684 4.1979 12.148 7.8691 2.102 2.3527 3.8263 5.0545 5.0547 7.9453h8.9219c-3.4031-11.144-12.315-20.402-23.717-23.781-3.3991-1.0953-6.9117-1.6257-10.41-1.6348-11.428-0.029738-22.702 5.5068-29.336 15.119-3.6018 4.9139-5.7226 10.653-6.3984 16.547h-22.031l-37.305-37.312zm189.27 0-37.312 37.312h-41.963c-1.8259-6.6164-7.8845-11.482-15.082-11.482-8.6417 0-15.65 7.0129-15.65 15.65 0 8.6417 7.0087 15.648 15.65 15.648 7.1984 0 13.259-4.8634 15.084-11.482h41.961l37.312 37.305 41.471-41.471-41.471-41.48zm-189.27 11.783 29.688 29.697-29.688 29.688-29.697-29.688 29.697-29.697zm189.27 0.009766 29.688 29.688-29.688 29.688-29.688-29.688 29.688-29.688zm-4.166 12.881v12.639h-12.631v8.334h12.631v12.639h8.332v-12.639h12.639v-8.334h-12.639v-12.639h-8.332zm-201.91 12.639v8.334h33.604v-8.334h-33.604z" clip-rule="evenodd" fill="#231f20" fill-rule="nonzero" stroke-width="4.1667"/></g><g transform="translate(-20.55 -114.37)">
            
            
            
            
            
            
            
            
            
            
        </g>
    <defs>
        
    
        
    
                
            
                
                
            
                    
                <clipPath id="a"><use xlink:href="#g3153"/></clipPath></defs>
<g clip-path="url(#a)"/></svg>
