<?xml version="1.0" encoding="UTF-8"?>
<svg enable-background="new 0 0 47.5 47.5" version="1.1" viewBox="0 0 47.5 47.5" xml:space="preserve" xmlns="http://www.w3.org/2000/svg"><g transform="matrix(1.25 0 0 -1.25 22.299 5.6042)" fill="#808000"><path transform="matrix(.8 0 0 -.8 -17.839 4.4834)" d="m23.75 1.25c-3.4488 0-7.9206 4.6377-10.984 11.428-2.2388 2.1612-4.6172 5.2793-6.1797 8.4043-3.0475 6.095-3.8932 14.284-2.5957 14.932 1.0912 0.54625 2.9048-1.9398 5.2598-6.3535 0.13845 5.6184 1.6686 8.9262 3.8164 10.879-0.73745-0.056687-1.4143-0.09375-1.9023-0.09375-3.2062 0-1.4512 1.2986-1.4512 2.9023 0 1.6025-1.7551 2.9023 1.4512 2.9023 2.7862 0 10.585-0.98156 12.586-2.2891 2 1.3075 9.7997 2.2891 12.586 2.2891 3.2062 0 1.4512-1.2998 1.4512-2.9023 0-1.6038 1.7551-2.9023-1.4512-2.9023-0.488 0-1.1649 0.037063-1.9023 0.09375 2.1479-1.9523 3.6785-5.2596 3.8164-10.877 2.355 4.4112 4.1698 6.8978 5.2598 6.3516 1.2975-0.6475 0.4518-8.8366-2.5957-14.932-1.5625-3.1238-3.9402-6.2423-6.1777-8.4023-0.6378-1.4129-1.3403-2.7255-2.0781-3.9297h4.1562c1.3608 0-1.1059-3.8294-7.4043-4.3066-1.9396-2.0234-3.9295-3.1934-5.6602-3.1934zm-2.9023 2.9023c0.80125 0 1.4512 0.64992 1.4512 1.4512 0 0.8025-0.64992 1.4531-1.4512 1.4531-0.8025 0-1.4512-0.65062-1.4512-1.4531 0-0.80125 0.64867-1.4512 1.4512-1.4512zm-1.6914 5.7773c1.0625 0.75875 2.715 1.4824 4.5938 1.4824s3.5312-0.72367 4.5938-1.4824c4.1288 2.6712 7.0195 8.8255 7.0195 15.998 0 9.6188-5.1983 17.42-11.613 17.42-6.4138 0-11.613-7.8012-11.613-17.42 0-7.1725 2.892-13.327 7.0195-15.998z" fill="#808000"/></g></svg>
